<!-- Made by Adam Burucs. 2024. License: CC-BY-NC-4.0 Creative Commons 4.0 --><!DOCTYPE svg PUBLIC "-//W3C//DTD SVG 1.1//EN" "http://www.w3.org/Graphics/SVG/1.1/DTD/svg11.dtd"><svg width="100%" height="100%" viewBox="0 0 34 34" version="1.1" xmlns="http://www.w3.org/2000/svg" xmlns:xlink="http://www.w3.org/1999/xlink" xml:space="preserve" xmlns:serif="http://www.serif.com/" style="fill-rule:evenodd;clip-rule:evenodd;stroke-linejoin:round;stroke-miterlimit:2;"><g id="background"><rect x="13" y="31" width="1" height="1" style="fill:#fee9e0;"/><rect x="14" y="31" width="1" height="1" style="fill:#fee9e0;"/><rect x="15" y="31" width="1" height="1" style="fill:#fee9e0;"/><rect x="16" y="31" width="1" height="1" style="fill:#fee9e0;"/><rect x="17" y="31" width="1" height="1" style="fill:#fee9e0;"/><rect x="18" y="31" width="1" height="1" style="fill:#fee9e0;"/><rect x="19" y="31" width="1" height="1" style="fill:#fee9e0;"/><rect x="20" y="31" width="1" height="1" style="fill:#fee9e0;"/><rect x="13" y="30" width="1" height="1" style="fill:#fee9e0;"/><rect x="14" y="30" width="1" height="1" style="fill:#fee9e0;"/><rect x="15" y="30" width="1" height="1" style="fill:#fee9e0;"/><rect x="16" y="30" width="1" height="1" style="fill:#fee9e0;"/><rect x="17" y="30" width="1" height="1" style="fill:#fee9e0;"/><rect x="18" y="30" width="1" height="1" style="fill:#fee9e0;"/><rect x="19" y="30" width="1" height="1" style="fill:#fee9e0;"/><rect x="20" y="30" width="1" height="1" style="fill:#fee9e0;"/><rect x="13" y="29" width="1" height="1" style="fill:#fee9e0;"/><rect x="14" y="29" width="1" height="1" style="fill:#fee9e0;"/><rect x="15" y="29" width="1" height="1" style="fill:#fee9e0;"/><rect x="16" y="29" width="1" height="1" style="fill:#fee9e0;"/><rect x="17" y="29" width="1" height="1" style="fill:#fee9e0;"/><rect x="18" y="29" width="1" height="1" style="fill:#fee9e0;"/><rect x="19" y="29" width="1" height="1" style="fill:#fee9e0;"/><rect x="20" y="29" width="1" height="1" style="fill:#fee9e0;"/><rect x="13" y="28" width="1" height="1" style="fill:#fee9e0;"/><rect x="14" y="28" width="1" height="1" style="fill:#fee9e0;"/><rect x="15" y="28" width="1" height="1" style="fill:#fee9e0;"/><rect x="16" y="28" width="1" height="1" style="fill:#fee9e0;"/><rect x="17" y="28" width="1" height="1" style="fill:#fee9e0;"/><rect x="18" y="28" width="1" height="1" style="fill:#fee9e0;"/><rect x="19" y="28" width="1" height="1" style="fill:#fee9e0;"/><rect x="20" y="28" width="1" height="1" style="fill:#fee9e0;"/><rect x="13" y="27" width="1" height="1" style="fill:#fee9e0;"/><rect x="14" y="27" width="1" height="1" style="fill:#fee9e0;"/><rect x="15" y="27" width="1" height="1" style="fill:#fee9e0;"/><rect x="16" y="27" width="1" height="1" style="fill:#fee9e0;"/><rect x="17" y="27" width="1" height="1" style="fill:#fee9e0;"/><rect x="18" y="27" width="1" height="1" style="fill:#fee9e0;"/><rect x="19" y="27" width="1" height="1" style="fill:#fee9e0;"/><rect x="20" y="27" width="1" height="1" style="fill:#fee9e0;"/><rect x="21" y="27" width="1" height="1" style="fill:#fee9e0;"/><rect x="21" y="26" width="1" height="1" style="fill:#fee9e0;"/><rect x="22" y="26" width="1" height="1" style="fill:#fee9e0;"/><rect x="23" y="26" width="1" height="1" style="fill:#fee9e0;"/><rect x="24" y="26" width="1" height="1" style="fill:#fee9e0;"/><rect x="23" y="27" width="1" height="1" style="fill:#fee9e0;"/><rect x="21" y="28" width="1" height="1" style="fill:#fee9e0;"/><rect x="22" y="28" width="1" height="1" style="fill:#fee9e0;"/><rect x="23" y="28" width="1" height="1" style="fill:#fee9e0;"/><rect x="22" y="27" width="1" height="1" style="fill:#fee9e0;"/><rect x="22" y="29" width="1" height="1" style="fill:#fee9e0;"/><rect x="21" y="29" width="1" height="1" style="fill:#fee9e0;"/><rect x="21" y="30" width="1" height="1" style="fill:#fee9e0;"/><rect x="13" y="26" width="1" height="1" style="fill:#fee9e0;"/><rect x="14" y="26" width="1" height="1" style="fill:#fee9e0;"/><rect x="15" y="26" width="1" height="1" style="fill:#fee9e0;"/><rect x="16" y="26" width="1" height="1" style="fill:#fee9e0;"/><rect x="17" y="26" width="1" height="1" style="fill:#fee9e0;"/><rect x="18" y="26" width="1" height="1" style="fill:#fee9e0;"/><rect x="19" y="26" width="1" height="1" style="fill:#fee9e0;"/><rect x="20" y="26" width="1" height="1" style="fill:#fee9e0;"/><rect x="13" y="25" width="1" height="1" style="fill:#fee9e0;"/><rect x="14" y="25" width="1" height="1" style="fill:#fee9e0;"/><rect x="15" y="25" width="1" height="1" style="fill:#fee9e0;"/><rect x="16" y="25" width="1" height="1" style="fill:#fee9e0;"/><rect x="17" y="25" width="1" height="1" style="fill:#fee9e0;"/><rect x="18" y="25" width="1" height="1" style="fill:#fee9e0;"/><rect x="19" y="25" width="1" height="1" style="fill:#fee9e0;"/><rect x="20" y="25" width="1" height="1" style="fill:#fee9e0;"/><rect x="13" y="24" width="1" height="1" style="fill:#fee9e0;"/><rect x="14" y="24" width="1" height="1" style="fill:#fee9e0;"/><rect x="15" y="24" width="1" height="1" style="fill:#fee9e0;"/><rect x="16" y="24" width="1" height="1" style="fill:#fee9e0;"/><rect x="17" y="24" width="1" height="1" style="fill:#fee9e0;"/><rect x="18" y="24" width="1" height="1" style="fill:#fee9e0;"/><rect x="19" y="24" width="1" height="1" style="fill:#fee9e0;"/><rect x="20" y="24" width="1" height="1" style="fill:#fee9e0;"/><rect x="13" y="23" width="1" height="1" style="fill:#fee9e0;"/><rect x="14" y="23" width="1" height="1" style="fill:#fee9e0;"/><rect x="15" y="23" width="1" height="1" style="fill:#fee9e0;"/><rect x="16" y="23" width="1" height="1" style="fill:#fee9e0;"/><rect x="17" y="23" width="1" height="1" style="fill:#fee9e0;"/><rect x="18" y="23" width="1" height="1" style="fill:#fee9e0;"/><rect x="19" y="23" width="1" height="1" style="fill:#fee9e0;"/><rect x="20" y="23" width="1" height="1" style="fill:#fee9e0;"/><rect x="13" y="22" width="1" height="1" style="fill:#fee9e0;"/><rect x="14" y="22" width="1" height="1" style="fill:#fee9e0;"/><rect x="15" y="22" width="1" height="1" style="fill:#fee9e0;"/><rect x="16" y="22" width="1" height="1" style="fill:#fee9e0;"/><rect x="17" y="22" width="1" height="1" style="fill:#fee9e0;"/><rect x="18" y="22" width="1" height="1" style="fill:#fee9e0;"/><rect x="19" y="22" width="1" height="1" style="fill:#fee9e0;"/><rect x="20" y="22" width="1" height="1" style="fill:#fee9e0;"/><rect x="13" y="21" width="1" height="1" style="fill:#fee9e0;"/><rect x="14" y="21" width="1" height="1" style="fill:#fee9e0;"/><rect x="15" y="21" width="1" height="1" style="fill:#fee9e0;"/><rect x="16" y="21" width="1" height="1" style="fill:#fee9e0;"/><rect x="17" y="21" width="1" height="1" style="fill:#fee9e0;"/><rect x="18" y="21" width="1" height="1" style="fill:#fee9e0;"/><rect x="19" y="21" width="1" height="1" style="fill:#fee9e0;"/><rect x="20" y="21" width="1" height="1" style="fill:#fee9e0;"/><rect x="13" y="20" width="1" height="1" style="fill:#fee9e0;"/><rect x="14" y="20" width="1" height="1" style="fill:#fee9e0;"/><rect x="15" y="20" width="1" height="1" style="fill:#fee9e0;"/><rect x="16" y="20" width="1" height="1" style="fill:#fee9e0;"/><rect x="17" y="20" width="1" height="1" style="fill:#fee9e0;"/><rect x="18" y="20" width="1" height="1" style="fill:#fee9e0;"/><rect x="19" y="20" width="1" height="1" style="fill:#fee9e0;"/><rect x="20" y="20" width="1" height="1" style="fill:#fee9e0;"/><rect x="13" y="19" width="1" height="1" style="fill:#fee9e0;"/><rect x="14" y="19" width="1" height="1" style="fill:#fee9e0;"/><rect x="15" y="19" width="1" height="1" style="fill:#fee9e0;"/><rect x="16" y="19" width="1" height="1" style="fill:#fee9e0;"/><rect x="17" y="19" width="1" height="1" style="fill:#fee9e0;"/><rect x="18" y="19" width="1" height="1" style="fill:#fee9e0;"/><rect x="19" y="19" width="1" height="1" style="fill:#fee9e0;"/><rect x="20" y="19" width="1" height="1" style="fill:#fee9e0;"/><rect x="13" y="18" width="1" height="1" style="fill:#fee9e0;"/><rect x="14" y="18" width="1" height="1" style="fill:#fee9e0;"/><rect x="15" y="18" width="1" height="1" style="fill:#fee9e0;"/><rect x="16" y="18" width="1" height="1" style="fill:#fee9e0;"/><rect x="17" y="18" width="1" height="1" style="fill:#fee9e0;"/><rect x="18" y="18" width="1" height="1" style="fill:#fee9e0;"/><rect x="19" y="18" width="1" height="1" style="fill:#fee9e0;"/><rect x="20" y="18" width="1" height="1" style="fill:#fee9e0;"/><rect x="13" y="17" width="1" height="1" style="fill:#fee9e0;"/><rect x="14" y="17" width="1" height="1" style="fill:#fee9e0;"/><rect x="15" y="17" width="1" height="1" style="fill:#fee9e0;"/><rect x="16" y="17" width="1" height="1" style="fill:#fee9e0;"/><rect x="17" y="17" width="1" height="1" style="fill:#fee9e0;"/><rect x="18" y="17" width="1" height="1" style="fill:#fee9e0;"/><rect x="19" y="17" width="1" height="1" style="fill:#fee9e0;"/><rect x="20" y="17" width="1" height="1" style="fill:#fee9e0;"/><rect x="13" y="16" width="1" height="1" style="fill:#fee9e0;"/><rect x="14" y="16" width="1" height="1" style="fill:#fee9e0;"/><rect x="15" y="16" width="1" height="1" style="fill:#fee9e0;"/><rect x="16" y="16" width="1" height="1" style="fill:#fee9e0;"/><rect x="17" y="16" width="1" height="1" style="fill:#fee9e0;"/><rect x="18" y="16" width="1" height="1" style="fill:#fee9e0;"/><rect x="19" y="16" width="1" height="1" style="fill:#fee9e0;"/><rect x="20" y="16" width="1" height="1" style="fill:#fee9e0;"/><rect x="13" y="15" width="1" height="1" style="fill:#fee9e0;"/><rect x="14" y="15" width="1" height="1" style="fill:#fee9e0;"/><rect x="15" y="15" width="1" height="1" style="fill:#fee9e0;"/><rect x="16" y="15" width="1" height="1" style="fill:#fee9e0;"/><rect x="17" y="15" width="1" height="1" style="fill:#fee9e0;"/><rect x="18" y="15" width="1" height="1" style="fill:#fee9e0;"/><rect x="19" y="15" width="1" height="1" style="fill:#fee9e0;"/><rect x="20" y="15" width="1" height="1" style="fill:#fee9e0;"/><rect x="13" y="14" width="1" height="1" style="fill:#fee9e0;"/><rect x="14" y="14" width="1" height="1" style="fill:#fee9e0;"/><rect x="15" y="14" width="1" height="1" style="fill:#fee9e0;"/><rect x="16" y="14" width="1" height="1" style="fill:#fee9e0;"/><rect x="17" y="14" width="1" height="1" style="fill:#fee9e0;"/><rect x="18" y="14" width="1" height="1" style="fill:#fee9e0;"/><rect x="19" y="14" width="1" height="1" style="fill:#fee9e0;"/><rect x="20" y="14" width="1" height="1" style="fill:#fee9e0;"/><rect x="13" y="13" width="1" height="1" style="fill:#fee9e0;"/><rect x="14" y="13" width="1" height="1" style="fill:#fee9e0;"/><rect x="15" y="13" width="1" height="1" style="fill:#fee9e0;"/><rect x="16" y="13" width="1" height="1" style="fill:#fee9e0;"/><rect x="17" y="13" width="1" height="1" style="fill:#fee9e0;"/><rect x="18" y="13" width="1" height="1" style="fill:#fee9e0;"/><rect x="19" y="13" width="1" height="1" style="fill:#fee9e0;"/><rect x="20" y="13" width="1" height="1" style="fill:#fee9e0;"/><rect x="13" y="12" width="1" height="1" style="fill:#fee9e0;"/><rect x="14" y="12" width="1" height="1" style="fill:#fee9e0;"/><rect x="15" y="12" width="1" height="1" style="fill:#fee9e0;"/><rect x="16" y="12" width="1" height="1" style="fill:#fee9e0;"/><rect x="17" y="12" width="1" height="1" style="fill:#fee9e0;"/><rect x="18" y="12" width="1" height="1" style="fill:#fee9e0;"/><rect x="19" y="12" width="1" height="1" style="fill:#fee9e0;"/><rect x="20" y="12" width="1" height="1" style="fill:#fee9e0;"/><rect x="13" y="11" width="1" height="1" style="fill:#fee9e0;"/><rect x="14" y="11" width="1" height="1" style="fill:#fee9e0;"/><rect x="15" y="11" width="1" height="1" style="fill:#fee9e0;"/><rect x="16" y="11" width="1" height="1" style="fill:#fee9e0;"/><rect x="17" y="11" width="1" height="1" style="fill:#fee9e0;"/><rect x="18" y="11" width="1" height="1" style="fill:#fee9e0;"/><rect x="19" y="11" width="1" height="1" style="fill:#fee9e0;"/><rect x="20" y="11" width="1" height="1" style="fill:#fee9e0;"/><rect x="13" y="10" width="1" height="1" style="fill:#fee9e0;"/><rect x="14" y="10" width="1" height="1" style="fill:#fee9e0;"/><rect x="15" y="10" width="1" height="1" style="fill:#fee9e0;"/><rect x="16" y="10" width="1" height="1" style="fill:#fee9e0;"/><rect x="17" y="10" width="1" height="1" style="fill:#fee9e0;"/><rect x="18" y="10" width="1" height="1" style="fill:#fee9e0;"/><rect x="19" y="10" width="1" height="1" style="fill:#fee9e0;"/><rect x="20" y="10" width="1" height="1" style="fill:#fee9e0;"/><rect x="13" y="9" width="1" height="1" style="fill:#fee9e0;"/><rect x="14" y="9" width="1" height="1" style="fill:#fee9e0;"/><rect x="15" y="9" width="1" height="1" style="fill:#fee9e0;"/><rect x="16" y="9" width="1" height="1" style="fill:#fee9e0;"/><rect x="17" y="9" width="1" height="1" style="fill:#fee9e0;"/><rect x="18" y="9" width="1" height="1" style="fill:#fee9e0;"/><rect x="19" y="9" width="1" height="1" style="fill:#fee9e0;"/><rect x="20" y="9" width="1" height="1" style="fill:#fee9e0;"/><rect x="13" y="8" width="1" height="1" style="fill:#fee9e0;"/><rect x="14" y="8" width="1" height="1" style="fill:#fee9e0;"/><rect x="15" y="8" width="1" height="1" style="fill:#fee9e0;"/><rect x="16" y="8" width="1" height="1" style="fill:#fee9e0;"/><rect x="17" y="8" width="1" height="1" style="fill:#fee9e0;"/><rect x="18" y="8" width="1" height="1" style="fill:#fee9e0;"/><rect x="19" y="8" width="1" height="1" style="fill:#fee9e0;"/><rect x="20" y="8" width="1" height="1" style="fill:#fee9e0;"/><rect x="13" y="7" width="1" height="1" style="fill:#fee9e0;"/><rect x="12" y="7" width="1" height="1" style="fill:#fee9e0;"/><rect x="11" y="7" width="1" height="1" style="fill:#fee9e0;"/><rect x="10" y="7" width="1" height="1" style="fill:#fee9e0;"/><rect x="9" y="7" width="1" height="1" style="fill:#fee9e0;"/><rect x="9" y="6" width="1" height="1" style="fill:#fee9e0;"/><rect x="10" y="6" width="1" height="1" style="fill:#fee9e0;"/><rect x="11" y="6" width="1" height="1" style="fill:#fee9e0;"/><rect x="12" y="5" width="1" height="1" style="fill:#fee9e0;"/><rect x="12" y="6" width="1" height="1" style="fill:#fee9e0;"/><rect x="11" y="5" width="1" height="1" style="fill:#fee9e0;"/><rect x="10" y="5" width="1" height="1" style="fill:#fee9e0;"/><rect x="21" y="4" width="1" height="1" style="fill:#fee9e0;"/><rect x="21" y="5" width="1" height="1" style="fill:#fee9e0;"/><rect x="21" y="6" width="1" height="1" style="fill:#fee9e0;"/><rect x="21" y="7" width="1" height="1" style="fill:#fee9e0;"/><rect x="22" y="7" width="1" height="1" style="fill:#fee9e0;"/><rect x="23" y="7" width="1" height="1" style="fill:#fee9e0;"/><rect x="24" y="7" width="1" height="1" style="fill:#fee9e0;"/><rect x="25" y="7" width="1" height="1" style="fill:#fee9e0;"/><rect x="25" y="6" width="1" height="1" style="fill:#fee9e0;"/><rect x="24" y="6" width="1" height="1" style="fill:#fee9e0;"/><rect x="23" y="6" width="1" height="1" style="fill:#fee9e0;"/><rect x="22" y="6" width="1" height="1" style="fill:#fee9e0;"/><rect x="22" y="5" width="1" height="1" style="fill:#fee9e0;"/><rect x="23" y="5" width="1" height="1" style="fill:#fee9e0;"/><rect x="24" y="5" width="1" height="1" style="fill:#fee9e0;"/><rect x="12" y="4" width="1" height="1" style="fill:#fee9e0;"/><rect x="22" y="4" width="1" height="1" style="fill:#fee9e0;"/><rect x="14" y="7" width="1" height="1" style="fill:#fee9e0;"/><rect x="15" y="7" width="1" height="1" style="fill:#fee9e0;"/><rect x="16" y="7" width="1" height="1" style="fill:#fee9e0;"/><rect x="17" y="7" width="1" height="1" style="fill:#fee9e0;"/><rect x="18" y="7" width="1" height="1" style="fill:#fee9e0;"/><rect x="19" y="7" width="1" height="1" style="fill:#fee9e0;"/><rect x="20" y="7" width="1" height="1" style="fill:#fee9e0;"/><rect x="13" y="6" width="1" height="1" style="fill:#fee9e0;"/><rect x="14" y="6" width="1" height="1" style="fill:#fee9e0;"/><rect x="15" y="6" width="1" height="1" style="fill:#fee9e0;"/><rect x="16" y="6" width="1" height="1" style="fill:#fee9e0;"/><rect x="17" y="6" width="1" height="1" style="fill:#fee9e0;"/><rect x="18" y="6" width="1" height="1" style="fill:#fee9e0;"/><rect x="19" y="6" width="1" height="1" style="fill:#fee9e0;"/><rect x="20" y="6" width="1" height="1" style="fill:#fee9e0;"/><rect x="13" y="5" width="1" height="1" style="fill:#fee9e0;"/><rect x="14" y="5" width="1" height="1" style="fill:#fee9e0;"/><rect x="15" y="5" width="1" height="1" style="fill:#fee9e0;"/><rect x="16" y="5" width="1" height="1" style="fill:#fee9e0;"/><rect x="17" y="5" width="1" height="1" style="fill:#fee9e0;"/><rect x="18" y="5" width="1" height="1" style="fill:#fee9e0;"/><rect x="19" y="5" width="1" height="1" style="fill:#fee9e0;"/><rect x="20" y="5" width="1" height="1" style="fill:#fee9e0;"/><rect x="13" y="4" width="1" height="1" style="fill:#fee9e0;"/><rect x="14" y="4" width="1" height="1" style="fill:#fee9e0;"/><rect x="15" y="4" width="1" height="1" style="fill:#fee9e0;"/><rect x="16" y="4" width="1" height="1" style="fill:#fee9e0;"/><rect x="17" y="4" width="1" height="1" style="fill:#fee9e0;"/><rect x="18" y="4" width="1" height="1" style="fill:#fee9e0;"/><rect x="19" y="4" width="1" height="1" style="fill:#fee9e0;"/><rect x="20" y="4" width="1" height="1" style="fill:#fee9e0;"/><rect x="13" y="3" width="1" height="1" style="fill:#fee9e0;"/><rect x="14" y="3" width="1" height="1" style="fill:#fee9e0;"/><rect x="15" y="3" width="1" height="1" style="fill:#fee9e0;"/><rect x="16" y="3" width="1" height="1" style="fill:#fee9e0;"/><rect x="17" y="3" width="1" height="1" style="fill:#fee9e0;"/><rect x="18" y="3" width="1" height="1" style="fill:#fee9e0;"/><rect x="19" y="3" width="1" height="1" style="fill:#fee9e0;"/><rect x="20" y="3" width="1" height="1" style="fill:#fee9e0;"/><rect x="13" y="2" width="1" height="1" style="fill:#fee9e0;"/><rect x="14" y="2" width="1" height="1" style="fill:#fee9e0;"/><rect x="15" y="2" width="1" height="1" style="fill:#fee9e0;"/><rect x="16" y="2" width="1" height="1" style="fill:#fee9e0;"/><rect x="17" y="2" width="1" height="1" style="fill:#fee9e0;"/><rect x="18" y="2" width="1" height="1" style="fill:#fee9e0;"/><rect x="19" y="2" width="1" height="1" style="fill:#fee9e0;"/><rect x="20" y="2" width="1" height="1" style="fill:#fee9e0;"/><rect x="21" y="13" width="1" height="1" style="fill:#fee9e0;"/><rect x="22" y="13" width="1" height="1" style="fill:#fee9e0;"/><rect x="23" y="13" width="1" height="1" style="fill:#fee9e0;"/><rect x="24" y="13" width="1" height="1" style="fill:#fee9e0;"/><rect x="25" y="13" width="1" height="1" style="fill:#fee9e0;"/><rect x="26" y="13" width="1" height="1" style="fill:#fee9e0;"/><rect x="27" y="13" width="1" height="1" style="fill:#fee9e0;"/><rect x="21" y="12" width="1" height="1" style="fill:#fee9e0;"/><rect x="22" y="12" width="1" height="1" style="fill:#fee9e0;"/><rect x="23" y="12" width="1" height="1" style="fill:#fee9e0;"/><rect x="24" y="12" width="1" height="1" style="fill:#fee9e0;"/><rect x="25" y="12" width="1" height="1" style="fill:#fee9e0;"/><rect x="26" y="12" width="1" height="1" style="fill:#fee9e0;"/><rect x="27" y="12" width="1" height="1" style="fill:#fee9e0;"/><rect x="21" y="11" width="1" height="1" style="fill:#fee9e0;"/><rect x="22" y="11" width="1" height="1" style="fill:#fee9e0;"/><rect x="23" y="11" width="1" height="1" style="fill:#fee9e0;"/><rect x="24" y="11" width="1" height="1" style="fill:#fee9e0;"/><rect x="25" y="11" width="1" height="1" style="fill:#fee9e0;"/><rect x="26" y="11" width="1" height="1" style="fill:#fee9e0;"/><rect x="27" y="11" width="1" height="1" style="fill:#fee9e0;"/><rect x="21" y="10" width="1" height="1" style="fill:#fee9e0;"/><rect x="22" y="10" width="1" height="1" style="fill:#fee9e0;"/><rect x="23" y="10" width="1" height="1" style="fill:#fee9e0;"/><rect x="24" y="10" width="1" height="1" style="fill:#fee9e0;"/><rect x="25" y="10" width="1" height="1" style="fill:#fee9e0;"/><rect x="26" y="10" width="1" height="1" style="fill:#fee9e0;"/><rect x="21" y="9" width="1" height="1" style="fill:#fee9e0;"/><rect x="22" y="9" width="1" height="1" style="fill:#fee9e0;"/><rect x="23" y="9" width="1" height="1" style="fill:#fee9e0;"/><rect x="24" y="9" width="1" height="1" style="fill:#fee9e0;"/><rect x="25" y="9" width="1" height="1" style="fill:#fee9e0;"/><rect x="26" y="9" width="1" height="1" style="fill:#fee9e0;"/><rect x="27" y="9" width="1" height="1" style="fill:#fee9e0;"/><rect x="21" y="8" width="1" height="1" style="fill:#fee9e0;"/><rect x="22" y="8" width="1" height="1" style="fill:#fee9e0;"/><rect x="23" y="8" width="1" height="1" style="fill:#fee9e0;"/><rect x="24" y="8" width="1" height="1" style="fill:#fee9e0;"/><rect x="25" y="8" width="1" height="1" style="fill:#fee9e0;"/><rect x="26" y="8" width="1" height="1" style="fill:#fee9e0;"/><rect x="27" y="8" width="1" height="1" style="fill:#fee9e0;"/><rect x="21" y="19" width="1" height="1" style="fill:#fee9e0;"/><rect x="22" y="19" width="1" height="1" style="fill:#fee9e0;"/><rect x="23" y="19" width="1" height="1" style="fill:#fee9e0;"/><rect x="24" y="19" width="1" height="1" style="fill:#fee9e0;"/><rect x="25" y="19" width="1" height="1" style="fill:#fee9e0;"/><rect x="26" y="19" width="1" height="1" style="fill:#fee9e0;"/><rect x="27" y="19" width="1" height="1" style="fill:#fee9e0;"/><rect x="21" y="18" width="1" height="1" style="fill:#fee9e0;"/><rect x="22" y="18" width="1" height="1" style="fill:#fee9e0;"/><rect x="23" y="18" width="1" height="1" style="fill:#fee9e0;"/><rect x="24" y="18" width="1" height="1" style="fill:#fee9e0;"/><rect x="25" y="18" width="1" height="1" style="fill:#fee9e0;"/><rect x="26" y="18" width="1" height="1" style="fill:#fee9e0;"/><rect x="27" y="18" width="1" height="1" style="fill:#fee9e0;"/><rect x="21" y="17" width="1" height="1" style="fill:#fee9e0;"/><rect x="22" y="17" width="1" height="1" style="fill:#fee9e0;"/><rect x="23" y="17" width="1" height="1" style="fill:#fee9e0;"/><rect x="24" y="17" width="1" height="1" style="fill:#fee9e0;"/><rect x="25" y="17" width="1" height="1" style="fill:#fee9e0;"/><rect x="26" y="17" width="1" height="1" style="fill:#fee9e0;"/><rect x="27" y="17" width="1" height="1" style="fill:#fee9e0;"/><rect x="21" y="16" width="1" height="1" style="fill:#fee9e0;"/><rect x="22" y="16" width="1" height="1" style="fill:#fee9e0;"/><rect x="23" y="16" width="1" height="1" style="fill:#fee9e0;"/><rect x="24" y="16" width="1" height="1" style="fill:#fee9e0;"/><rect x="25" y="16" width="1" height="1" style="fill:#fee9e0;"/><rect x="26" y="16" width="1" height="1" style="fill:#fee9e0;"/><rect x="27" y="16" width="1" height="1" style="fill:#fee9e0;"/><rect x="21" y="15" width="1" height="1" style="fill:#fee9e0;"/><rect x="22" y="15" width="1" height="1" style="fill:#fee9e0;"/><rect x="23" y="15" width="1" height="1" style="fill:#fee9e0;"/><rect x="24" y="15" width="1" height="1" style="fill:#fee9e0;"/><rect x="25" y="15" width="1" height="1" style="fill:#fee9e0;"/><rect x="26" y="15" width="1" height="1" style="fill:#fee9e0;"/><rect x="27" y="15" width="1" height="1" style="fill:#fee9e0;"/><rect x="21" y="14" width="1" height="1" style="fill:#fee9e0;"/><rect x="22" y="14" width="1" height="1" style="fill:#fee9e0;"/><rect x="23" y="14" width="1" height="1" style="fill:#fee9e0;"/><rect x="24" y="14" width="1" height="1" style="fill:#fee9e0;"/><rect x="25" y="14" width="1" height="1" style="fill:#fee9e0;"/><rect x="26" y="14" width="1" height="1" style="fill:#fee9e0;"/><rect x="27" y="14" width="1" height="1" style="fill:#fee9e0;"/><rect x="21" y="25" width="1" height="1" style="fill:#fee9e0;"/><rect x="22" y="25" width="1" height="1" style="fill:#fee9e0;"/><rect x="23" y="25" width="1" height="1" style="fill:#fee9e0;"/><rect x="24" y="25" width="1" height="1" style="fill:#fee9e0;"/><rect x="25" y="25" width="1" height="1" style="fill:#fee9e0;"/><rect x="21" y="24" width="1" height="1" style="fill:#fee9e0;"/><rect x="22" y="24" width="1" height="1" style="fill:#fee9e0;"/><rect x="23" y="24" width="1" height="1" style="fill:#fee9e0;"/><rect x="24" y="24" width="1" height="1" style="fill:#fee9e0;"/><rect x="25" y="24" width="1" height="1" style="fill:#fee9e0;"/><rect x="26" y="24" width="1" height="1" style="fill:#fee9e0;"/><rect x="21" y="23" width="1" height="1" style="fill:#fee9e0;"/><rect x="22" y="23" width="1" height="1" style="fill:#fee9e0;"/><rect x="23" y="23" width="1" height="1" style="fill:#fee9e0;"/><rect x="24" y="23" width="1" height="1" style="fill:#fee9e0;"/><rect x="25" y="23" width="1" height="1" style="fill:#fee9e0;"/><rect x="26" y="23" width="1" height="1" style="fill:#fee9e0;"/><rect x="21" y="22" width="1" height="1" style="fill:#fee9e0;"/><rect x="22" y="22" width="1" height="1" style="fill:#fee9e0;"/><rect x="23" y="22" width="1" height="1" style="fill:#fee9e0;"/><rect x="24" y="22" width="1" height="1" style="fill:#fee9e0;"/><rect x="25" y="22" width="1" height="1" style="fill:#fee9e0;"/><rect x="26" y="22" width="1" height="1" style="fill:#fee9e0;"/><rect x="21" y="21" width="1" height="1" style="fill:#fee9e0;"/><rect x="22" y="21" width="1" height="1" style="fill:#fee9e0;"/><rect x="23" y="21" width="1" height="1" style="fill:#fee9e0;"/><rect x="24" y="21" width="1" height="1" style="fill:#fee9e0;"/><rect x="25" y="21" width="1" height="1" style="fill:#fee9e0;"/><rect x="26" y="21" width="1" height="1" style="fill:#fee9e0;"/><rect x="27" y="21" width="1" height="1" style="fill:#fee9e0;"/><rect x="21" y="20" width="1" height="1" style="fill:#fee9e0;"/><rect x="22" y="20" width="1" height="1" style="fill:#fee9e0;"/><rect x="23" y="20" width="1" height="1" style="fill:#fee9e0;"/><rect x="24" y="20" width="1" height="1" style="fill:#fee9e0;"/><rect x="25" y="20" width="1" height="1" style="fill:#fee9e0;"/><rect x="26" y="20" width="1" height="1" style="fill:#fee9e0;"/><rect x="27" y="20" width="1" height="1" style="fill:#fee9e0;"/><rect x="8" y="24" width="1" height="1" style="fill:#fee9e0;"/><rect x="9" y="24" width="1" height="1" style="fill:#fee9e0;"/><rect x="10" y="24" width="1" height="1" style="fill:#fee9e0;"/><rect x="11" y="24" width="1" height="1" style="fill:#fee9e0;"/><rect x="12" y="24" width="1" height="1" style="fill:#fee9e0;"/><rect x="13" y="24" width="1" height="1" style="fill:#fee9e0;"/><rect x="14" y="24" width="1" height="1" style="fill:#fee9e0;"/><rect x="15" y="24" width="1" height="1" style="fill:#fee9e0;"/><rect x="8" y="23" width="1" height="1" style="fill:#fee9e0;"/><rect x="9" y="23" width="1" height="1" style="fill:#fee9e0;"/><rect x="10" y="23" width="1" height="1" style="fill:#fee9e0;"/><rect x="11" y="23" width="1" height="1" style="fill:#fee9e0;"/><rect x="12" y="23" width="1" height="1" style="fill:#fee9e0;"/><rect x="13" y="23" width="1" height="1" style="fill:#fee9e0;"/><rect x="14" y="23" width="1" height="1" style="fill:#fee9e0;"/><rect x="15" y="23" width="1" height="1" style="fill:#fee9e0;"/><rect x="8" y="22" width="1" height="1" style="fill:#fee9e0;"/><rect x="9" y="22" width="1" height="1" style="fill:#fee9e0;"/><rect x="10" y="22" width="1" height="1" style="fill:#fee9e0;"/><rect x="11" y="22" width="1" height="1" style="fill:#fee9e0;"/><rect x="12" y="22" width="1" height="1" style="fill:#fee9e0;"/><rect x="13" y="22" width="1" height="1" style="fill:#fee9e0;"/><rect x="14" y="22" width="1" height="1" style="fill:#fee9e0;"/><rect x="15" y="22" width="1" height="1" style="fill:#fee9e0;"/><rect x="8" y="21" width="1" height="1" style="fill:#fee9e0;"/><rect x="9" y="21" width="1" height="1" style="fill:#fee9e0;"/><rect x="10" y="21" width="1" height="1" style="fill:#fee9e0;"/><rect x="11" y="21" width="1" height="1" style="fill:#fee9e0;"/><rect x="12" y="21" width="1" height="1" style="fill:#fee9e0;"/><rect x="13" y="21" width="1" height="1" style="fill:#fee9e0;"/><rect x="14" y="21" width="1" height="1" style="fill:#fee9e0;"/><rect x="15" y="21" width="1" height="1" style="fill:#fee9e0;"/><rect x="8" y="20" width="1" height="1" style="fill:#fee9e0;"/><rect x="9" y="20" width="1" height="1" style="fill:#fee9e0;"/><rect x="10" y="20" width="1" height="1" style="fill:#fee9e0;"/><rect x="11" y="20" width="1" height="1" style="fill:#fee9e0;"/><rect x="12" y="20" width="1" height="1" style="fill:#fee9e0;"/><rect x="13" y="20" width="1" height="1" style="fill:#fee9e0;"/><rect x="14" y="20" width="1" height="1" style="fill:#fee9e0;"/><rect x="15" y="20" width="1" height="1" style="fill:#fee9e0;"/><rect x="8" y="19" width="1" height="1" style="fill:#fee9e0;"/><rect x="9" y="19" width="1" height="1" style="fill:#fee9e0;"/><rect x="10" y="19" width="1" height="1" style="fill:#fee9e0;"/><rect x="11" y="19" width="1" height="1" style="fill:#fee9e0;"/><rect x="12" y="19" width="1" height="1" style="fill:#fee9e0;"/><rect x="13" y="19" width="1" height="1" style="fill:#fee9e0;"/><rect x="14" y="19" width="1" height="1" style="fill:#fee9e0;"/><rect x="15" y="19" width="1" height="1" style="fill:#fee9e0;"/><rect x="8" y="13" width="1" height="1" style="fill:#fee9e0;"/><rect x="9" y="13" width="1" height="1" style="fill:#fee9e0;"/><rect x="10" y="13" width="1" height="1" style="fill:#fee9e0;"/><rect x="11" y="13" width="1" height="1" style="fill:#fee9e0;"/><rect x="12" y="13" width="1" height="1" style="fill:#fee9e0;"/><rect x="13" y="13" width="1" height="1" style="fill:#fee9e0;"/><rect x="14" y="13" width="1" height="1" style="fill:#fee9e0;"/><rect x="15" y="13" width="1" height="1" style="fill:#fee9e0;"/><rect x="8" y="12" width="1" height="1" style="fill:#fee9e0;"/><rect x="9" y="12" width="1" height="1" style="fill:#fee9e0;"/><rect x="10" y="12" width="1" height="1" style="fill:#fee9e0;"/><rect x="11" y="12" width="1" height="1" style="fill:#fee9e0;"/><rect x="12" y="12" width="1" height="1" style="fill:#fee9e0;"/><rect x="13" y="12" width="1" height="1" style="fill:#fee9e0;"/><rect x="14" y="12" width="1" height="1" style="fill:#fee9e0;"/><rect x="15" y="12" width="1" height="1" style="fill:#fee9e0;"/><rect x="8" y="11" width="1" height="1" style="fill:#fee9e0;"/><rect x="9" y="11" width="1" height="1" style="fill:#fee9e0;"/><rect x="10" y="11" width="1" height="1" style="fill:#fee9e0;"/><rect x="11" y="11" width="1" height="1" style="fill:#fee9e0;"/><rect x="12" y="11" width="1" height="1" style="fill:#fee9e0;"/><rect x="13" y="11" width="1" height="1" style="fill:#fee9e0;"/><rect x="14" y="11" width="1" height="1" style="fill:#fee9e0;"/><rect x="15" y="11" width="1" height="1" style="fill:#fee9e0;"/><rect x="8" y="10" width="1" height="1" style="fill:#fee9e0;"/><rect x="9" y="10" width="1" height="1" style="fill:#fee9e0;"/><rect x="10" y="10" width="1" height="1" style="fill:#fee9e0;"/><rect x="11" y="10" width="1" height="1" style="fill:#fee9e0;"/><rect x="12" y="10" width="1" height="1" style="fill:#fee9e0;"/><rect x="13" y="10" width="1" height="1" style="fill:#fee9e0;"/><rect x="14" y="10" width="1" height="1" style="fill:#fee9e0;"/><rect x="15" y="10" width="1" height="1" style="fill:#fee9e0;"/><rect x="8" y="9" width="1" height="1" style="fill:#fee9e0;"/><rect x="9" y="9" width="1" height="1" style="fill:#fee9e0;"/><rect x="10" y="9" width="1" height="1" style="fill:#fee9e0;"/><rect x="11" y="9" width="1" height="1" style="fill:#fee9e0;"/><rect x="12" y="9" width="1" height="1" style="fill:#fee9e0;"/><rect x="13" y="9" width="1" height="1" style="fill:#fee9e0;"/><rect x="14" y="9" width="1" height="1" style="fill:#fee9e0;"/><rect x="15" y="9" width="1" height="1" style="fill:#fee9e0;"/><rect x="8" y="8" width="1" height="1" style="fill:#fee9e0;"/><rect x="9" y="8" width="1" height="1" style="fill:#fee9e0;"/><rect x="10" y="8" width="1" height="1" style="fill:#fee9e0;"/><rect x="11" y="8" width="1" height="1" style="fill:#fee9e0;"/><rect x="12" y="8" width="1" height="1" style="fill:#fee9e0;"/><rect x="13" y="8" width="1" height="1" style="fill:#fee9e0;"/><rect x="14" y="8" width="1" height="1" style="fill:#fee9e0;"/><rect x="15" y="8" width="1" height="1" style="fill:#fee9e0;"/><rect x="10" y="15" width="1" height="1" style="fill:#fee9e0;"/><rect x="11" y="15" width="1" height="1" style="fill:#fee9e0;"/><rect x="12" y="15" width="1" height="1" style="fill:#fee9e0;"/><rect x="12" y="17" width="1" height="1" style="fill:#fee9e0;"/><rect x="11" y="17" width="1" height="1" style="fill:#fee9e0;"/><rect x="11" y="16" width="1" height="1" style="fill:#fee9e0;"/><rect x="10" y="16" width="1" height="1" style="fill:#fee9e0;"/><rect x="10" y="17" width="1" height="1" style="fill:#fee9e0;"/><rect x="9" y="17" width="1" height="1" style="fill:#fee9e0;"/><rect x="9" y="14" width="1" height="1" style="fill:#fee9e0;"/><rect x="9" y="16" width="1" height="1" style="fill:#fee9e0;"/><rect x="8" y="14" width="1" height="1" style="fill:#fee9e0;"/><rect x="8" y="18" width="1" height="1" style="fill:#fee9e0;"/><rect x="7" y="18" width="1" height="1" style="fill:#fee9e0;"/><rect x="7" y="19" width="1" height="1" style="fill:#fee9e0;"/><rect x="9" y="25" width="1" height="1" style="fill:#fee9e0;"/><rect x="10" y="25" width="1" height="1" style="fill:#fee9e0;"/><rect x="11" y="25" width="1" height="1" style="fill:#fee9e0;"/><rect x="9" y="26" width="1" height="1" style="fill:#fee9e0;"/><rect x="11" y="26" width="1" height="1" style="fill:#fee9e0;"/><rect x="11" y="27" width="1" height="1" style="fill:#fee9e0;"/><rect x="11" y="28" width="1" height="1" style="fill:#fee9e0;"/><rect x="11" y="29" width="1" height="1" style="fill:#fee9e0;"/><rect x="10" y="28" width="1" height="1" style="fill:#fee9e0;"/><rect x="10" y="27" width="1" height="1" style="fill:#fee9e0;"/><rect x="10" y="26" width="1" height="1" style="fill:#fee9e0;"/><rect x="12" y="25" width="1" height="1" style="fill:#fee9e0;"/><rect x="12" y="26" width="1" height="1" style="fill:#fee9e0;"/><rect x="12" y="27" width="1" height="1" style="fill:#fee9e0;"/><rect x="12" y="28" width="1" height="1" style="fill:#fee9e0;"/><rect x="12" y="29" width="1" height="1" style="fill:#fee9e0;"/><rect x="12" y="30" width="1" height="1" style="fill:#fee9e0;"/></g><g id="hair"><rect x="6.988" y="14.002" width="1.012" height="1" style="fill:#693b23;"/><rect x="6.988" y="15.002" width="1.012" height="1" style="fill:#693b23;"/><rect x="6.988" y="17.002" width="1.012" height="1" style="fill:#693b23;"/><rect x="26.988" y="17.002" width="1.012" height="1" style="fill:#693b23;"/><rect x="6.988" y="13.002" width="1.012" height="1" style="fill:#693b23;"/><rect x="6.988" y="12.002" width="1.012" height="1" style="fill:#693b23;"/><rect x="6.988" y="11.002" width="1.012" height="1" style="fill:#693b23;"/><rect x="6.988" y="10.002" width="1.012" height="1" style="fill:#693b23;"/><rect x="6.988" y="9.002" width="1.012" height="1" style="fill:#693b23;"/><rect x="7.988" y="7.002" width="1.012" height="1" style="fill:#693b23;"/><rect x="6.988" y="8.002" width="1.012" height="1" style="fill:#693b23;"/><rect x="7.988" y="6.002" width="1.012" height="1" style="fill:#693b23;"/><rect x="8.988" y="5.002" width="1.012" height="1" style="fill:#693b23;"/><rect x="10.988" y="3.002" width="1.012" height="1" style="fill:#693b23;"/><rect x="9.988" y="4.002" width="1.012" height="1" style="fill:#693b23;"/><rect x="11.988" y="2.002" width="1.012" height="1" style="fill:#693b23;"/><rect x="12.988" y="2.002" width="1.012" height="1" style="fill:#693b23;"/><rect x="13.988" y="2.002" width="1.012" height="1" style="fill:#693b23;"/><rect x="13.988" y="1.002" width="1.012" height="1" style="fill:#693b23;"/><rect x="14.988" y="1.002" width="1.012" height="1" style="fill:#693b23;"/><rect x="16" y="1.002" width="1.012" height="1" style="fill:#693b23;"/><rect x="16.976" y="1" width="1.012" height="1" style="fill:#693b23;"/><rect x="17.988" y="1" width="1.012" height="1" style="fill:#693b23;"/><rect x="19" y="1.002" width="1.012" height="1" style="fill:#693b23;"/><rect x="20.012" y="1.002" width="1.012" height="1" style="fill:#693b23;"/><rect x="14.988" y="3.002" width="1.012" height="1" style="fill:#693b23;"/><rect x="15.988" y="3.002" width="1.012" height="1" style="fill:#693b23;"/><rect x="15.988" y="2.002" width="1.012" height="1" style="fill:#693b23;"/><rect x="17.988" y="2.002" width="1.012" height="1" style="fill:#693b23;"/><rect x="17.988" y="3.002" width="1.012" height="1" style="fill:#693b23;"/><rect x="20.988" y="3.002" width="1.012" height="1" style="fill:#693b23;"/><rect x="21.988" y="3.002" width="1.012" height="1" style="fill:#693b23;"/><rect x="13.988" y="3.002" width="1.012" height="1" style="fill:#693b23;"/><rect x="12.988" y="3.002" width="1.012" height="1" style="fill:#693b23;"/><rect x="11.988" y="3.002" width="1.012" height="1" style="fill:#693b23;"/><rect x="10.988" y="4.002" width="1.012" height="1" style="fill:#693b23;"/><rect x="22.988" y="4.002" width="1.012" height="1" style="fill:#693b23;"/><rect x="16.976" y="3" width="1.012" height="1" style="fill:#693b23;"/><rect x="19" y="3.002" width="1.012" height="1" style="fill:#693b23;"/><rect x="20.012" y="3.002" width="1.012" height="1" style="fill:#693b23;"/><rect x="14.988" y="2.002" width="1.012" height="1" style="fill:#693b23;"/><rect x="16.976" y="2" width="1.012" height="1" style="fill:#693b23;"/><rect x="19" y="2.002" width="1.012" height="1" style="fill:#693b23;"/><rect x="20.012" y="2.002" width="1.012" height="1" style="fill:#693b23;"/><rect x="21.024" y="2" width="1.012" height="1" style="fill:#693b23;"/><rect x="22.035" y="2" width="1.012" height="1" style="fill:#693b23;"/><rect x="23" y="3" width="1.012" height="1" style="fill:#693b23;"/><rect x="24.012" y="4" width="1.012" height="1" style="fill:#693b23;"/><rect x="25.024" y="5" width="1.012" height="1" style="fill:#693b23;"/><rect x="26" y="6" width="1.012" height="1" style="fill:#693b23;"/><rect x="26.988" y="8" width="1.012" height="1" style="fill:#693b23;"/><rect x="26.988" y="9" width="1.012" height="1" style="fill:#693b23;"/><rect x="26.988" y="10" width="1.012" height="1" style="fill:#693b23;"/><rect x="27" y="11" width="1.012" height="1" style="fill:#693b23;"/><rect x="27" y="12" width="1.012" height="1" style="fill:#693b23;"/><rect x="27" y="13" width="1.012" height="1" style="fill:#693b23;"/><rect x="27" y="14" width="1.012" height="1" style="fill:#693b23;"/><rect x="27" y="15" width="1.012" height="1" style="fill:#693b23;"/><rect x="25.988" y="7" width="1.012" height="1" style="fill:#693b23;"/></g><g id="mouth"><rect x="14" y="25" width="1" height="1" style="fill:#d3695d;"/><rect x="15" y="25" width="1" height="1" style="fill:#d3695d;"/><rect x="16" y="25" width="1" height="1" style="fill:#d3695d;"/><rect x="17.012" y="25" width="1" height="1" style="fill:#d3695d;"/><rect x="18.012" y="25" width="1" height="1" style="fill:#d3695d;"/><rect x="19.012" y="25" width="1" height="1" style="fill:#d3695d;"/><rect x="20" y="24" width="1" height="1" style="fill:#d3695d;"/><rect x="13" y="24" width="1" height="1" style="fill:#d3695d;"/></g><g id="nose"><rect x="15" y="21" width="1" height="1" style="fill:#250906;"/><rect x="18" y="21" width="1" height="1" style="fill:#250906;"/></g><g id="bottom"><rect x="9" y="28" width="1" height="1" style="fill:#250906;"/><rect x="10" y="29" width="1" height="1" style="fill:#250906;"/><rect x="11" y="30" width="1" height="1" style="fill:#250906;"/><rect x="12" y="31" width="1" height="1" style="fill:#250906;"/><rect x="13" y="32" width="1" height="1" style="fill:#250906;"/><rect x="14" y="32" width="1" height="1" style="fill:#250906;"/><rect x="15" y="32" width="1" height="1" style="fill:#250906;"/><rect x="16" y="32" width="1" height="1" style="fill:#250906;"/><rect x="17" y="32" width="1" height="1" style="fill:#250906;"/><rect x="18" y="32" width="1" height="1" style="fill:#250906;"/><rect x="19" y="32" width="1" height="1" style="fill:#250906;"/><rect x="20" y="32" width="1" height="1" style="fill:#250906;"/><rect x="21" y="31" width="1" height="1" style="fill:#250906;"/><rect x="22" y="30" width="1" height="1" style="fill:#250906;"/><rect x="23" y="29" width="1" height="1" style="fill:#250906;"/><rect x="24" y="28" width="1" height="1" style="fill:#250906;"/><rect x="24" y="27" width="1" height="1" style="fill:#250906;"/><rect x="9" y="27" width="1" height="1" style="fill:#250906;"/><rect x="8" y="26" width="1" height="1" style="fill:#250906;"/><rect x="8" y="25" width="1" height="1" style="fill:#250906;"/><rect x="25" y="25" width="1" height="1" style="fill:#250906;"/><rect x="25" y="26" width="1" height="1" style="fill:#250906;"/></g><g id="ears"><rect x="7" y="24" width="1" height="1" style="fill:#f9c0a8;"/><rect x="7" y="23" width="1" height="1" style="fill:#f9c0a8;"/><rect x="7" y="22" width="1" height="1" style="fill:#f9c0a8;"/><rect x="7" y="21" width="1" height="1" style="fill:#f9c0a8;"/><rect x="7" y="20" width="1" height="1" style="fill:#f9c0a8;"/><rect x="6" y="20" width="1" height="1" style="fill:#f9c0a8;"/><rect x="6" y="21" width="1" height="1" style="fill:#f9c0a8;"/><rect x="6" y="19" width="1" height="1" style="fill:#f9c0a8;"/><rect x="6" y="18" width="1" height="1" style="fill:#f9c0a8;"/><rect x="5" y="18" width="1" height="1" style="fill:#f9c0a8;"/><rect x="5" y="19" width="1" height="1" style="fill:#f9c0a8;"/><rect x="26" y="24" width="1" height="1" style="fill:#f9c0a8;"/><rect x="26" y="23" width="1" height="1" style="fill:#f9c0a8;"/><rect x="26" y="22" width="1" height="1" style="fill:#f9c0a8;"/><rect x="26" y="21" width="1" height="1" style="fill:#f9c0a8;"/><rect x="26" y="20" width="1" height="1" style="fill:#f9c0a8;"/><rect x="27" y="20" width="1" height="1" style="fill:#f9c0a8;"/><rect x="27" y="21" width="1" height="1" style="fill:#f9c0a8;"/><rect x="27" y="19" width="1" height="1" style="fill:#f9c0a8;"/><rect x="27" y="18" width="1" height="1" style="fill:#f9c0a8;"/><rect x="28" y="18" width="1" height="1" style="fill:#f9c0a8;"/><rect x="28" y="19" width="1" height="1" style="fill:#f9c0a8;"/></g><g id="glasses"><rect x="15" y="15" width="1" height="1" style="fill:#bcb3af;"/><rect x="14" y="14" width="1" height="1" style="fill:#bcb3af;"/><rect x="13" y="14" width="1" height="1" style="fill:#bcb3af;"/><rect x="12" y="14" width="1" height="1" style="fill:#bcb3af;"/><rect x="11" y="14" width="1" height="1" style="fill:#bcb3af;"/><rect x="10" y="14" width="1" height="1" style="fill:#bcb3af;"/><rect x="8" y="15" width="1" height="1" style="fill:#bcb3af;"/><rect x="8" y="17" width="1" height="1" style="fill:#bcb3af;"/><rect x="8" y="16" width="1" height="1" style="fill:#bcb3af;"/><rect x="7" y="16" width="1" height="1" style="fill:#bcb3af;"/><rect x="26" y="16.002" width="1" height="1" style="fill:#bcb3af;"/><rect x="27" y="16.002" width="1" height="1" style="fill:#bcb3af;"/><rect x="9" y="15" width="1" height="1" style="fill:#bcb3af;"/><rect x="16" y="15" width="1" height="1" style="fill:#bcb3af;"/><rect x="17" y="15" width="1" height="1" style="fill:#bcb3af;"/><rect x="18" y="15" width="1" height="1" style="fill:#bcb3af;"/><rect x="19" y="14" width="1" height="1" style="fill:#bcb3af;"/><rect x="20" y="14" width="1" height="1" style="fill:#bcb3af;"/><rect x="21" y="14" width="1" height="1" style="fill:#bcb3af;"/><rect x="22" y="14" width="1" height="1" style="fill:#bcb3af;"/><rect x="23" y="14" width="1" height="1" style="fill:#bcb3af;"/><rect x="24" y="15" width="1" height="1" style="fill:#bcb3af;"/><rect x="25" y="15" width="1" height="1" style="fill:#bcb3af;"/><rect x="25" y="16" width="1" height="1" style="fill:#bcb3af;"/><rect x="25" y="17" width="1" height="1" style="fill:#bcb3af;"/><rect x="24" y="18" width="1" height="1" style="fill:#bcb3af;"/><rect x="23" y="18" width="1" height="1" style="fill:#bcb3af;"/><rect x="22" y="18" width="1" height="1" style="fill:#bcb3af;"/><rect x="21" y="18" width="1" height="1" style="fill:#bcb3af;"/><rect x="20" y="18" width="1" height="1" style="fill:#bcb3af;"/><rect x="13" y="18" width="1" height="1" style="fill:#bcb3af;"/><rect x="14" y="17" width="1" height="1" style="fill:#bcb3af;"/><rect x="15" y="16" width="1" height="1" style="fill:#bcb3af;"/><rect x="12" y="18" width="1" height="1" style="fill:#bcb3af;"/><rect x="11" y="18" width="1" height="1" style="fill:#bcb3af;"/><rect x="10" y="18" width="1" height="1" style="fill:#bcb3af;"/><rect x="9" y="18" width="1" height="1" style="fill:#bcb3af;"/><rect x="19" y="17" width="1" height="1" style="fill:#bcb3af;"/><rect x="18" y="16" width="1" height="1" style="fill:#bcb3af;"/></g><g id="eyes"><rect x="21" y="16" width="1" height="1" style="fill:#4d2c17;"/><rect x="12" y="15.996" width="1" height="1" style="fill:#4d2c17;"/><rect x="13" y="15.996" width="1" height="1" style="fill:#4d2c17;"/><rect x="22" y="16" width="1" height="1" style="fill:#4d2c17;"/></g><g id="smile"><rect x="10" y="24" width="1" height="1" style="fill:#debdaf;"/><rect x="10" y="25" width="1" height="1" style="fill:#debdaf;"/><rect x="11" y="26" width="1" height="1" style="fill:#debdaf;"/><rect x="11" y="27" width="1" height="1" style="fill:#debdaf;"/><rect x="12" y="28" width="1" height="1" style="fill:#debdaf;"/><rect x="21" y="28" width="1" height="1" style="fill:#debdaf;"/><rect x="23" y="24" width="1" height="1" style="fill:#debdaf;"/><rect x="23" y="25" width="1" height="1" style="fill:#debdaf;"/><rect x="22" y="26" width="1" height="1" style="fill:#debdaf;"/><rect x="22" y="27" width="1" height="1" style="fill:#debdaf;"/><rect x="22" y="27" width="1" height="1" style="fill:#debdaf;"/></g></svg>